<svg width="300" height="142" viewBox="0 0 300 142" fill="none" xmlns="http://www.w3.org/2000/svg">
<path d="M111.666 0.0105247C123.264 0.291925 135.152 0.113724 146.776 0.130799L160.07 63.4613L163.751 80.9153C164.85 85.9471 166.125 91.2006 166.827 96.2963C172.509 76.3713 177.583 53.9261 182.645 33.6611L188.244 11.3326C188.916 8.64057 190.579 2.63927 190.918 0.122149L220.183 0.145149C221.723 5.35372 223.131 11.6569 224.441 16.9633L231.721 46.2666L239.168 76.0821C240.666 81.9658 243.013 90.3166 244.178 96.1586C245.353 91.7641 246.188 86.9871 247.156 82.4973L253.566 51.9696L260.881 17.3333C262.093 11.5971 263.448 5.7675 264.498 0C266.523 0.1522 268.518 0.121299 270.546 0.138249C280.276 0.219449 290.026 0.0488496 299.753 0.168775C296.988 11.2366 294.121 22.2791 291.156 33.2948L272.121 105.877L265.903 129.582C264.943 133.243 263.621 137.744 262.826 141.373C251.683 141.507 240.261 141.174 229.183 141.419C224.213 121.211 218.228 100.147 212.81 79.9733L208.811 65.0261C207.763 61.1856 206.461 56.7793 205.717 52.9028L190.6 109.274C187.779 119.777 184.593 130.897 182.052 141.417L148.488 141.366L120.786 36.1046C119.908 32.7713 114.531 10.1953 113.277 8.22065C112.83 6.78455 111.603 1.3004 111.666 0.0105247Z" fill="#D80019"/>
<path d="M0.224334 0.123334L72.4633 0.117009C85.5311 0.175909 98.5988 0.140434 111.666 0.0105591C111.603 1.30043 112.83 6.78458 113.277 8.22068C113.624 14.1147 113.311 21.7981 113.385 27.9151C100.473 28.1591 87.0401 27.8769 74.0438 27.9531L74.0313 141.373C63.5846 141.773 50.4346 141.449 39.8668 141.442C39.5146 129.121 39.8188 115.15 39.8188 102.715L39.8043 27.9441L0.245833 27.9024C-0.183917 20.4771 0.0435836 7.69318 0.224334 0.123334Z" fill="#02213F"/>
</svg>
