<svg width="490" height="436" viewBox="0 0 490 436" fill="none" xmlns="http://www.w3.org/2000/svg">
<path d="M195.001 34.2805C203.198 34.438 211.395 34.4895 219.593 34.4345C225.35 34.4328 231.525 34.5397 237.232 34.3242C243.635 62.3275 249.021 90.8123 255.15 118.886C257.302 128.747 259.32 139.446 261.725 149.181C264.773 138.961 267.47 126.528 270.062 116.059L281.285 71.2695C284.273 59.1603 287.243 46.3217 290.515 34.306C301.378 34.7577 314.567 34.449 325.585 34.3815C328.81 47.6033 332.11 60.807 335.48 73.992L344.95 112.231C348.008 124.353 351.487 137.183 354.18 149.337C355.57 145.259 356.805 138.305 357.71 133.926L362.92 108.998L373.612 58.3117C375.172 50.8357 377.412 41.6707 378.645 34.258C383.242 34.5767 389.162 34.4358 393.837 34.435L420.978 34.4445C419.235 42.067 417 50.0355 415.013 57.6283L404.145 98.972L376.62 203.956C363.63 203.921 349.03 204.296 336.265 203.903C334.755 196.9 332.14 188.304 330.255 181.273C325.808 164.289 321.265 147.33 316.625 130.397C314.027 120.778 310.22 107.746 308.207 98.1537C306.042 104.933 304.212 112.334 302.34 119.248L291.85 158.518L283.945 187.815C282.625 192.724 280.75 199.068 279.755 203.949C266.383 203.929 252.67 203.765 239.318 203.936C230 166.524 219.579 128.901 209.855 91.5397L201.128 57.9473C200.46 55.431 198.211 46.4882 197.326 44.8085C196.822 41.5295 195.277 37.487 195.001 34.2805Z" fill="#D80019"/>
<path d="M61.5193 34.295L195.001 34.2805C195.277 37.487 196.822 41.5295 197.326 44.8085C197.665 51.9385 197.452 60.3813 197.429 67.6135C193.133 67.986 185.345 67.7605 180.844 67.76L150.135 67.7505C150.573 96.3053 150.204 125.842 150.209 154.497L150.212 186.448C150.213 191.58 150.443 198.901 150.072 203.843C146.519 204.181 139.546 203.99 135.738 203.99L109.074 203.982C108.816 188.835 109.05 173.072 109.049 157.87L109.044 67.7353L79.078 67.7585C73.6273 67.7617 66.8755 67.9272 61.5228 67.626C61.1493 58.2862 61.2925 43.6867 61.5193 34.295Z" fill="#02213F"/>
<path d="M287.907 283.837C300.84 282.362 310.343 289.645 311.885 302.61C313.48 315.997 308.63 328.455 294.057 330.435C288.23 330.897 282.69 330.277 277.888 326.717C266.538 318.297 266.675 295.155 278.487 287.177C281.447 285.177 284.42 284.295 287.907 283.837Z" fill="#02213F"/>
<path d="M290.237 290.36C307.87 289.077 310.69 322.023 291.53 323.898C273.895 325.468 271.195 291.955 290.237 290.36Z" fill="#FCFCFB"/>
<path d="M224.926 284.258C227.102 284.388 229.863 284.318 232.09 284.318C232.445 286.01 232.961 287.842 233.443 289.517C236.238 299.225 238.511 309.242 241.461 318.892C243.942 307.44 247.261 295.75 249.652 284.277C252.26 284.31 254.867 284.37 257.475 284.462C256.82 287.087 256.125 289.705 255.385 292.31L248.933 316.263C247.776 320.555 246.257 325.66 245.328 329.955C242.877 329.987 240.426 329.995 237.976 329.975C235.502 319.585 231.545 307.103 228.538 296.635C227.405 299.74 226.134 304.783 225.189 308.095L218.95 329.987L211.649 329.967C210.483 323.217 199.347 286.58 199.899 284.385L207.339 284.323C209.76 295.75 212.987 307.355 215.45 318.89C216.732 315.573 218.304 309.1 219.276 305.432C221.119 298.472 223.246 291.218 224.926 284.258Z" fill="#02213F"/>
<path d="M328.99 284.38C335.537 284.25 342.685 284.065 349.19 284.568C363.875 285.698 366.685 305.07 353.4 311.408C356.4 317.428 360.61 323.903 363.33 329.93C360.935 329.975 356.8 330.14 354.557 329.853C351.975 324.353 348.357 318.025 345.465 312.54C342.56 312.658 339.28 312.61 336.328 312.665L336.287 329.945C333.847 329.978 331.405 329.988 328.962 329.978C328.677 315.605 328.727 298.75 328.99 284.38Z" fill="#02213F"/>
<path d="M336.343 290.718C343.403 290.505 355.93 289.063 353.855 300.688C353.6 302.105 352.773 303.18 351.888 304.265C347.883 307.248 341.335 306.45 336.303 306.39C336.288 301.168 336.3 295.943 336.343 290.718Z" fill="#FCFCFB"/>
<path d="M97.505 284.337C104.103 284.315 111.075 284.055 117.632 284.557C132.408 285.687 135.284 305.132 121.862 311.435C125.175 317.535 128.722 323.67 131.871 329.84C129.365 329.96 125.52 330.162 123.079 329.907C120.986 324.972 116.543 317.69 113.979 312.51C111.536 312.725 107.536 312.59 104.8 312.693L104.77 329.937C102.367 329.995 99.8728 329.97 97.461 329.978C97.3405 315.183 97.1973 299.077 97.505 284.337Z" fill="#02213F"/>
<path d="M104.807 290.707C110.418 290.562 121.296 289.225 122.458 296.922C122.931 300.052 122.293 301.772 120.412 304.247C116.075 307.257 110.153 306.44 104.823 306.395C104.777 301.167 104.772 295.937 104.807 290.707Z" fill="#FCFCFB"/>
<path d="M378.503 284.34C380.933 284.32 383.363 284.343 385.793 284.413L385.775 305.517C391.388 299.47 398.248 290.835 403.718 284.312C406.69 284.342 409.903 284.43 412.85 284.3C408.345 290.435 400.793 298.307 395.705 304.52C398.8 309.247 403.495 315.225 406.938 319.878C409.418 323.19 411.86 326.53 414.265 329.897C411.115 330.002 407.963 330.02 404.81 329.95C400.33 323.328 394.905 316.567 390.248 309.895C388.64 311.6 387.555 312.858 386.09 314.67C385.563 317.358 385.77 326.547 385.77 329.938C383.37 329.995 380.87 329.973 378.46 329.978C378.35 315.158 378.195 299.102 378.503 284.34Z" fill="#02213F"/>
<path d="M176.763 284.328C179.199 284.378 181.738 284.35 184.183 284.358L184.183 290.812C184.138 297.102 184.703 313.995 183.377 318.978C182.731 321.458 181.459 323.732 179.682 325.58C173.139 332.365 158.428 332.37 151.741 325.725C146.055 320.073 147.159 310.812 147.165 303.375L147.192 284.4C149.559 284.3 152.132 284.355 154.516 284.36L154.511 302.987C154.498 307.247 154.261 311.202 154.904 315.55C156.19 324.257 167.56 326.427 173.477 321.185C177.709 317.435 176.752 309.213 176.747 303.825L176.763 284.328Z" fill="#02213F"/>
<path d="M46.8232 284.328C57.8497 284.318 71.0227 284.008 81.8912 284.44L81.8087 290.76C77.2857 290.923 72.62 290.748 68.0252 290.885C67.9055 299.198 68.0082 307.793 68.007 316.125L68.0125 329.958L60.6012 329.978C60.582 317.035 60.7652 303.83 60.5625 290.915C56.2295 290.695 51.1607 290.805 46.7722 290.813C46.74 288.65 46.757 286.488 46.8232 284.328Z" fill="#02213F"/>
<path d="M330.32 380.058C331.323 380.068 331.405 379.905 332.138 380.34C333.085 382.4 332.52 385.675 332.282 388.013C337.27 384.618 342.01 384.717 343.587 391.865C344.145 394.39 343.185 397.343 341.63 399.413C337.18 403.91 333.795 399.108 332.46 399.035C332.22 400.188 332.232 400.497 331.407 401.18C330.982 401.247 331.192 401.233 330.715 401.038C329.9 399.685 330.305 382.71 330.32 380.058Z" fill="#6C7B90"/>
<path d="M335.677 388.005C342.557 387.268 343.257 396.225 338.16 398.978C333.67 399.208 331.977 396.2 332.695 391.78C332.967 390.09 334.225 388.87 335.677 388.005Z" fill="#FCFCFB"/>
<path d="M243.624 385.78C246.726 385.568 248.929 386.745 250.123 389.75C251.75 393.845 250.518 399.725 245.878 401.193C244.036 401.775 241.574 400.22 239.97 399.358L239.629 399.475L239.636 400.313C239.653 401.878 239.879 404.228 239.259 405.56C238.562 405.995 238.792 405.863 237.816 405.813C237.156 404.943 237.368 388.515 237.586 386.408C238.037 386.063 238.307 385.98 239.003 386.078C240.371 386.27 239.043 386.963 239.608 387.825C241.371 387.123 241.651 386.255 243.624 385.78Z" fill="#6C7B90"/>
<path d="M244.096 387.812C249.928 388.815 250.393 397.512 244.208 399.152C238.314 398.482 237.728 388.908 244.096 387.812Z" fill="#FCFCFB"/>
<path d="M293.39 385.783C303.573 385.17 304.415 398.46 296.215 401.168C286.095 402.043 285.098 388.193 293.39 385.783Z" fill="#6C7B90"/>
<path d="M294.388 387.802C300.983 388.685 300.86 397.015 295.457 399.1C288.622 398.92 288.5 389.127 294.388 387.802Z" fill="#FCFCFB"/>
<path d="M274.388 385.782C284.583 385.175 285.412 398.457 277.212 401.167C267.162 402.072 266.05 388.222 274.388 385.782Z" fill="#6C7B90"/>
<path d="M275.4 387.8C281.972 388.697 281.862 397.008 276.455 399.1C269.622 398.92 269.49 389.127 275.4 387.8Z" fill="#FCFCFB"/>
<path d="M75.6913 385.78C82.8575 385.373 85.478 391.398 82.9818 397.563C82.2223 399.438 80.33 400.58 78.4405 401.168C68.0277 401.93 67.606 387.873 75.6913 385.78Z" fill="#6C7B90"/>
<path d="M75.4885 388.042C82.7523 387.082 83.4227 396.417 78.3027 398.915C71.8592 399.925 70.4295 391.3 75.4885 388.042Z" fill="#FCFCFB"/>
<path d="M121.572 385.81C127.896 385.348 129.004 388.505 129.74 394.01C127.035 394.048 122.233 393.745 119.522 394.203C119.099 394.273 119.026 394.773 118.904 395.135C119.199 397.228 120.94 398.697 122.999 399.05C124.558 399.315 125.595 398.567 126.786 397.71C127.311 397.055 128.093 396.753 128.886 397.078C129.526 398.725 127.882 399.983 126.509 400.558C116.186 404.878 112.393 389.06 121.572 385.81Z" fill="#6C7B90"/>
<path d="M121.745 388.01C124.208 387.75 127.767 389.142 126.856 391.957C125.976 392.492 126.03 392.302 124.812 392.31C123.086 392.307 119.602 392.857 118.954 391.017C119.314 389.73 120.662 388.703 121.745 388.01Z" fill="#FCFCFB"/>
<path d="M166.759 398.26C167.578 395.875 169.657 386.578 171.485 385.795L172.047 386.068C173.469 387.873 175.286 395.585 176.215 398.418C176.264 398.118 176.317 397.817 176.374 397.517C176.806 395.245 178.523 386.823 180.079 385.753C180.878 385.853 180.578 385.675 181.065 386.188C181.309 387.347 181.068 387.443 180.671 388.668C180.137 391.04 178.028 399.29 176.74 400.88C174.359 401.833 172.075 391.14 171.487 389.225C170.332 392.35 169.626 395.522 168.674 398.705C168.372 399.712 167.98 400.865 166.927 401.152C164.766 400.127 162.139 388.612 161.521 386.03C162.422 385.977 162.784 385.882 163.609 386.177C164.454 387.58 166.276 396.165 166.759 398.26Z" fill="#6C7B90"/>
<path d="M208.561 380.078C209.496 380.078 210.023 379.935 210.648 380.402C210.895 382.305 210.771 386.365 210.547 388.28C216.288 383.222 220.773 386.1 220.737 393.165C220.724 395.683 220.942 398.373 220.441 400.85L219.789 401.27C217.776 400.815 218.488 393.83 218.498 391.938C218.485 389.693 217.244 387.505 214.66 387.71C208.037 388.242 212.171 398.777 210.245 401.017C209.25 401.09 209.714 401.187 208.814 400.675C208.21 399.735 208.549 395.842 208.551 394.525C208.515 389.707 208.518 384.893 208.561 380.078Z" fill="#6C7B90"/>
<path d="M140.062 385.79C142.396 385.618 146.53 386.747 146.179 389.68C144.24 390.687 142.767 387.49 140.658 387.65C139.15 387.762 137.542 388.715 137.747 390.372C139.679 392.845 145.91 392.202 146.521 396.097C147.096 399.762 143.884 400.815 141.04 401.16C138.618 401.21 135.204 400.25 135.133 397.29C137.369 396.595 141.074 401.225 143.505 398.312C144.159 397.53 144.206 397.44 144.191 396.437C142.32 393.42 131.963 394.235 136.187 387.885C137.207 386.353 138.374 386.138 140.062 385.79Z" fill="#6C7B90"/>
<path d="M349.507 385.987C350.132 385.997 350.737 386.03 351.357 386.057C353.275 388.34 348.77 399.915 355.877 399.18C357.485 399.015 358.16 398.1 359.082 396.95C359.875 393.283 359.127 389.717 359.66 386.297L360.45 385.737C362.127 385.862 361.71 388.37 361.687 389.688C361.695 392.013 361.985 398.885 361.397 400.65C360.662 401.067 360.06 401.025 359.467 400.467L359.722 399.378L359.412 399.14L358.057 400.155C356.315 401.472 352.605 401.5 351.205 399.948C348.682 397.153 349.485 389.582 349.507 385.987Z" fill="#6C7B90"/>
<path d="M425.375 385.79C427.857 385.775 428.672 386.392 430.25 388.127C431.157 392.045 430.587 395.535 430.797 399.527C430.845 400.397 430.8 400.43 430.367 400.86C429.582 400.997 429.512 401.073 428.742 400.823C427.435 396.898 431.627 385.74 423.06 388.127C419.052 391.58 421.502 396.89 420.685 400.73C420.005 401.123 420.032 400.98 419.11 400.97C418.57 400.387 418.54 387.675 418.802 386.27C420.782 384.732 420.8 387.455 421.14 387.775C423.003 386.53 423.18 386.172 425.375 385.79Z" fill="#6C7B90"/>
<path d="M103.931 385.787C104.951 385.747 105.99 385.76 106.993 385.962C108.565 386.27 109.932 387.235 110.749 388.612C111.214 389.395 111.194 389.745 110.989 390.5L110.449 390.752C108.124 390.485 108.107 388.55 107.228 388.192C99.3152 384.982 97.7882 401.462 107.459 398.605C107.617 398.42 107.777 398.237 107.937 398.057C108.666 397.232 109.774 395.777 110.871 396.932C111.059 398.785 109.235 400.3 107.627 400.817C100.039 403.257 96.362 394.775 99.5567 388.975C100.58 387.12 101.944 386.302 103.931 385.787Z" fill="#6C7B90"/>
<path d="M59.3755 398.332C60.5712 395.602 62.6797 386.547 65.0682 385.685C65.7697 385.96 65.4962 385.738 65.9087 386.38L65.364 388.062C64.5095 390.31 61.4735 399.855 60.0487 400.992C57.218 401.242 53.6925 388.607 52.7802 385.992C53.5372 385.96 53.924 385.985 54.682 386.047C55.7732 386.71 58.7605 396.507 59.3755 398.332Z" fill="#6C7B90"/>
<path d="M312.432 380.033C313.392 380.06 313.763 380.065 314.42 380.578C314.06 381.973 310.758 382.398 310.663 385C311.543 386.84 312.73 385.605 314.358 386.455C314.513 387.135 314.55 386.818 314.233 387.445C313.213 387.905 311.962 387.807 310.805 387.83C310.655 391.767 310.765 396.325 310.765 400.31L310.568 400.872C309.893 401.007 309.765 401.095 309.1 400.913C308.405 399.82 308.705 390.135 308.705 388C307.447 387.825 306.653 387.94 306.015 387.128C306.108 386.355 305.945 386.682 306.58 386.142C311.947 385.632 305.757 381.323 312.432 380.033Z" fill="#6C7B90"/>
<path d="M197.213 381.938C197.848 381.975 198.077 381.925 198.625 382.237C199.012 382.857 199.029 382.91 199.019 383.638L198.987 385.98C200.211 386.025 201.573 385.833 202.31 386.91L202.044 387.362C201.071 387.905 200.146 387.792 199.002 387.81C198.915 390.802 198.655 394.153 199.15 397.103C199.607 399.833 202.054 398.02 202.695 400.545C194.947 403.49 196.97 392.468 196.969 387.885C195.726 387.833 195.277 387.91 194.395 387.122L194.505 386.638C195.26 385.973 195.969 386.022 197.001 385.902C196.98 384.672 196.745 382.96 197.213 381.938Z" fill="#6C7B90"/>
<path d="M388.237 381.932C388.967 381.98 388.94 381.96 389.61 382.242C389.985 382.86 390 382.915 389.995 383.638L389.977 385.987C391.25 386.052 392.465 385.873 393.295 386.915L393.052 387.337C392.067 387.882 391.152 387.777 389.997 387.8C389.9 390.787 389.597 394.428 390.207 397.35C390.707 399.733 393.07 398.103 393.697 400.535C385.955 403.51 387.977 392.44 387.975 387.872C386.745 387.82 386.282 387.892 385.402 387.115L385.5 386.64C386.26 385.985 386.97 386.033 388 385.913C387.992 384.678 387.785 382.97 388.237 381.932Z" fill="#6C7B90"/>
<path d="M26.4025 381.005C27.164 380.993 27.9452 380.875 28.5552 381.272C28.771 383.115 28.647 386.385 28.644 388.367L28.645 400.668C28.1655 401.208 27.1187 401.06 26.5535 400.695C26.2795 399.073 26.3957 395.338 26.4067 393.525C26.4545 389.353 26.453 385.178 26.4025 381.005Z" fill="#6C7B90"/>
<path d="M38.034 388.295C40.393 386.03 43.4995 384.322 46.4105 387.082C48.4367 389.002 48.4997 398.683 47.4602 400.765L46.9967 401.017C44.5937 400.19 47.7882 389.128 43.6377 387.855C41.5772 387.223 40.0257 388.17 38.8282 389.43L38.034 388.295Z" fill="#64748C"/>
<path d="M263.338 385.807L264.088 385.872C264.643 386.41 264.622 386.358 264.8 387.108L264.522 387.547C263.335 387.897 262.478 387.51 261.38 388.165C257.238 390.633 259.798 396.735 258.715 400.547C258.078 401.152 258.208 400.948 257.03 400.978C257.303 398.365 256.567 387.045 257.455 385.978L258.275 385.905C259.005 386.487 258.808 386.565 259.093 387.728L259.465 387.737C260.985 386.042 261.078 386.247 263.338 385.807Z" fill="#6C7B90"/>
<path d="M378.278 379.908C379.255 380.055 379.188 379.88 379.75 380.438C379.908 382.68 380.05 399.508 379.56 401.223C378.558 400.953 378.475 401.123 378.005 400.475C377.975 397.925 377.735 381.095 378.278 379.908Z" fill="#6C7B90"/>
<path d="M368.487 385.975C369.375 385.978 370.03 385.873 370.602 386.385C370.922 388.965 370.69 397.723 370.697 400.973C369.682 400.958 369.37 401.125 368.615 400.633C368.295 398.605 368.485 388.588 368.487 385.975Z" fill="#6C7B90"/>
<path d="M409.487 385.975C410.347 385.978 411.02 385.865 411.602 386.388C411.92 388.963 411.68 397.655 411.687 400.975C410.672 400.96 410.37 401.125 409.617 400.63C409.3 398.61 409.487 388.613 409.487 385.975Z" fill="#6C7B90"/>
<path d="M38.8283 389.43C37.524 392.477 38.7478 400.627 36.611 400.997L36.2368 400.677C36.2503 396.947 35.9703 393.2 35.9498 389.47C35.9428 388.228 35.8853 386.628 36.997 385.913L37.5793 386.052C38.101 386.672 38.006 387.455 38.034 388.295L38.8283 389.43Z" fill="#5A6C86"/>
<path d="M90.126 385.94C90.704 385.968 91.0433 386.015 91.6085 386.092C92.2953 386.922 91.988 399.155 92.0018 400.973C91.3358 401 90.9153 401.107 90.3775 400.74C89.9675 398.985 90.2955 388.878 90.126 385.94Z" fill="#6C7B90"/>
<path d="M187.164 385.943C187.726 385.968 188.056 386.018 188.605 386.095C189.297 386.935 188.953 398.962 188.986 400.965C188.283 401.01 188.06 401.082 187.422 400.77C187.007 399.56 187.258 388.305 187.164 385.943Z" fill="#6C7B90"/>
<path d="M438.418 398.135C438.893 397.812 439.505 397.77 440.017 398.027C440.532 398.285 440.865 398.8 440.89 399.375C440.915 399.947 440.625 400.49 440.135 400.79C439.405 401.24 438.448 401.022 437.98 400.3C437.515 399.58 437.708 398.617 438.418 398.135Z" fill="#6C7B90"/>
<path d="M187.394 380.37C187.874 380.12 188.454 380.152 188.902 380.457C189.351 380.76 189.597 381.288 189.542 381.825C189.487 382.365 189.141 382.83 188.64 383.038C187.912 383.34 187.075 383.015 186.741 382.3C186.408 381.585 186.695 380.735 187.394 380.37Z" fill="#6C7B90"/>
<path d="M90.3982 380.37C90.8782 380.122 91.4557 380.155 91.9025 380.46C92.3492 380.765 92.5935 381.288 92.5387 381.825C92.4837 382.363 92.1385 382.828 91.6395 383.035C90.9113 383.338 90.074 383.012 89.7412 382.297C89.4082 381.582 89.6982 380.732 90.3982 380.37Z" fill="#6C7B90"/>
<path d="M368.945 380.392C369.425 380.157 369.995 380.203 370.432 380.51C370.87 380.818 371.105 381.34 371.045 381.873C370.983 382.403 370.637 382.858 370.142 383.06C369.412 383.358 368.58 383.022 368.257 382.305C367.935 381.585 368.24 380.74 368.945 380.392Z" fill="#6C7B90"/>
<path d="M409.947 380.392C410.647 380.047 411.495 380.315 411.87 381C412.247 381.685 412.02 382.543 411.352 382.95C410.892 383.23 410.317 383.237 409.852 382.965C409.39 382.692 409.112 382.187 409.13 381.65C409.15 381.112 409.462 380.63 409.947 380.392Z" fill="#6C7B90"/>
</svg>
