<svg width="348" height="270" viewBox="0 0 348 270" fill="none" xmlns="http://www.w3.org/2000/svg">
<path d="M141.89 9.5457C153.488 9.8271 165.376 9.6489 177.001 9.66597L190.294 72.9965L193.975 90.4505C195.074 95.4823 196.349 100.736 197.051 105.831C202.733 85.9065 207.808 63.4612 212.869 43.1962L218.468 20.8677C219.14 18.1757 220.803 12.1744 221.143 9.65732L250.408 9.68032C251.948 14.8889 253.355 21.192 254.665 26.4985L261.945 55.8017L269.392 85.6172C270.89 91.501 273.237 99.8517 274.402 105.694C275.577 101.299 276.413 96.5223 277.38 92.0325L283.79 61.5047L291.105 26.8685C292.318 21.1322 293.673 15.3027 294.723 9.53517C296.748 9.68737 298.742 9.65647 300.77 9.67342C310.5 9.75462 320.25 9.58402 329.978 9.70395C327.213 20.7718 324.345 31.8142 321.38 42.83L302.345 115.412L296.128 139.117C295.168 142.778 293.845 147.279 293.05 150.908C281.907 151.042 270.485 150.709 259.408 150.954C254.438 130.746 248.452 109.682 243.034 89.5085L239.036 74.5612C237.988 70.7207 236.685 66.3145 235.941 62.438L220.825 118.809C218.004 129.312 214.817 140.432 212.276 150.952L178.712 150.902L151.01 45.6397C150.133 42.3065 144.755 19.7305 143.502 17.7558C143.054 16.3197 141.827 10.8356 141.89 9.5457Z" fill="#D80019"/>
<path d="M30.4485 9.65847L102.688 9.65215C115.755 9.71105 128.823 9.67558 141.89 9.5457C141.827 10.8356 143.054 16.3197 143.501 17.7558C143.848 23.6498 143.535 31.3332 143.609 37.4502C130.697 37.6942 117.264 37.412 104.268 37.4883L104.256 150.908C93.8088 151.308 80.6588 150.984 70.091 150.977C69.7388 138.656 70.043 124.686 70.043 112.25L70.0285 37.4793L30.47 37.4375C30.0403 30.0122 30.2678 17.2283 30.4485 9.65847Z" fill="#02213F"/>
<path d="M220.943 214.585C232.438 213.372 240.809 219.081 242.327 230.821C243.847 242.565 239.51 253.74 226.564 255.41C215.795 256.67 207.176 250.73 205.638 239.773C203.984 227.991 207.792 216.587 220.943 214.585Z" fill="#02213F"/>
<path d="M223.034 220.339C238.158 218.475 241.372 246.959 225.235 249.58C217.269 249.686 213.025 245.184 212.104 237.356C211.203 229.7 214.307 221.258 223.034 220.339Z" fill="#FCFCFC"/>
<path d="M166.049 214.987C168.181 214.979 170.312 214.986 172.443 215.009C174.831 224.807 177.888 235.265 180.485 245.087C181.96 240.117 183.305 233.616 184.55 228.497C185.414 224.942 187.128 218.472 187.619 215.006C189.953 214.951 192.345 215.01 194.684 215.04L192.602 222.837C189.883 233.393 186.86 244.494 183.905 254.99L177.527 254.967C175.931 248.47 173.71 241.804 171.958 235.32C171.122 232.227 169.906 228.75 169.449 225.61C166.483 234.078 163.519 246.089 160.91 254.99L154.521 254.97C151.521 241.874 146.961 228.2 143.913 215.008L150.902 214.975C151.368 218.655 152.684 222.552 153.423 226.214C154.698 232.533 156.983 239.229 157.831 245.564C160.577 235.55 163.579 225.036 166.049 214.987Z" fill="#02213F"/>
<path d="M257.105 215.011C263.775 214.969 271.653 214.381 278.07 215.837C282.76 217.253 285.727 221.139 285.935 225.912C286.212 232.317 284.393 235.859 278.66 238.711C281.283 243.698 285.092 249.92 287.335 254.93C285.687 254.982 280.75 255.247 279.525 254.727C277.297 250.067 273.627 244.247 271.745 239.772C269.062 239.764 266.38 239.784 263.7 239.832C263.625 244.81 263.682 249.94 263.652 254.932C261.527 254.992 259.328 254.972 257.195 254.982C256.905 241.822 257.495 228.095 257.105 215.011Z" fill="#02213F"/>
<path d="M263.743 220.576C268.865 220.49 278.075 219.28 279.082 226.243C279.47 228.932 278.803 230.28 277.288 232.396C273.378 235.035 268.445 234.319 263.718 234.241C263.645 229.686 263.653 225.131 263.743 220.576Z" fill="#FCFCFC"/>
<path d="M54.4608 215.005C59.719 214.975 70.755 214.324 75.5157 215.9C85.5852 219.233 86.309 233.673 75.922 238.711C78.6387 244.133 81.8955 249.416 84.6605 254.915C82.0592 255 79.4562 255.013 76.8545 254.95C74.6975 250.045 71.307 244.738 68.9475 239.757L60.9868 239.801L60.9658 254.938C58.8333 254.998 56.5855 254.97 54.4427 254.98C54.2632 241.971 54.331 228.005 54.4608 215.005Z" fill="#02213F"/>
<path d="M60.9893 220.545C66.094 220.489 75.3182 219.333 76.3317 226.178C76.731 228.876 76.0635 230.311 74.508 232.442C71.0193 234.965 65.3127 234.317 60.9987 234.276C60.9717 229.699 60.9688 225.122 60.9893 220.545Z" fill="#FCFCFC"/>
<path d="M322.71 215.034C325.287 214.923 328.26 214.999 330.867 215.005C326.392 220.695 320.613 227.088 315.812 232.611C318.578 236.784 322.508 241.808 325.538 245.911C327.413 248.191 330.347 252.37 332.05 254.855C329.13 254.985 326.638 254.995 323.725 254.96C320.798 250.555 314.227 241.677 310.967 237.628C309.437 239.105 308.287 240.353 307.235 242.201L307.205 254.938C305.045 254.985 302.83 254.97 300.665 254.983L300.682 215.007L307.235 215.004C307.232 221.094 307.31 227.38 307.152 233.455C312.377 227.348 317.562 221.207 322.71 215.034Z" fill="#02213F"/>
<path d="M123.776 215.018C125.927 214.969 128.147 215.003 130.304 215.01L130.301 220.875L130.334 232.98C130.351 239.221 131.134 246.49 126.27 251.285C120.455 257.07 107.677 257.018 101.902 251.255C96.8125 246.173 97.912 237.585 97.9083 230.938C97.8635 225.63 97.8623 220.321 97.9043 215.013C100.09 214.996 102.276 214.994 104.462 215.008L104.445 231.129C104.406 238.575 102.911 249.552 113.875 249.643C125.027 249.735 123.778 239.689 123.766 231.777L123.776 215.018Z" fill="#02213F"/>
<path d="M10.0357 215.009L40.8235 214.999L40.7972 220.689C36.9235 220.812 32.6547 220.74 28.7502 220.755C28.6397 228.124 28.735 235.736 28.7327 243.125L28.7145 254.93C26.5955 254.995 24.3661 254.972 22.2374 254.982C22.0785 243.635 22.2656 232.131 22.1775 220.749L10.0669 220.717C10.0248 218.838 10.0427 216.894 10.0357 215.009Z" fill="#02213F"/>
</svg>
